<svg width="20" height="20" viewBox="0 0 20 20" fill="none" xmlns="http://www.w3.org/2000/svg">
<path fill-rule="evenodd" clip-rule="evenodd" d="M3.82668 12.7535C1.95346 8.15562 5.33605 3.125 10.3009 3.125H10.5687C14.2818 3.125 17.2918 6.13501 17.2918 9.84804C17.2918 13.9821 13.9405 17.3333 9.80649 17.3333H3.28959C3.02437 17.3333 2.78804 17.1659 2.70001 16.9158C2.61199 16.6656 2.69145 16.3871 2.89823 16.221L4.54114 14.9016C4.61298 14.8439 4.63839 14.7459 4.60363 14.6606L3.82668 12.7535ZM10.3009 4.375C6.22378 4.375 3.44602 8.50613 4.9843 12.2819L5.76124 14.189C6.00458 14.7862 5.8267 15.4724 5.32385 15.8762L5.06597 16.0833H9.80649C13.2501 16.0833 16.0418 13.2917 16.0418 9.84804C16.0418 6.82536 13.5914 4.375 10.5687 4.375H10.3009Z" fill="current"/>
</svg>
