<svg width="21" height="20" viewBox="0 0 21 20" fill="none" xmlns="http://www.w3.org/2000/svg">
<path fill-rule="evenodd" clip-rule="evenodd" d="M10.5 1.95654C14.9422 1.95654 18.5434 5.55771 18.5434 9.99996C18.5434 14.4422 14.9422 18.0434 10.5 18.0434C6.05771 18.0434 2.45654 14.4422 2.45654 9.99996C2.45654 5.55771 6.05771 1.95654 10.5 1.95654Z" fill="url(#paint0_linear_198_11626)"/>
<path d="M11.5451 17.9758V11.7629H13.2966L13.5288 9.57625H11.5451L11.5481 8.48174C11.5481 7.91141 11.6022 7.60596 12.4214 7.60596H13.5165V5.41895H11.7646C9.66025 5.41895 8.91969 6.47965 8.91969 8.26369V9.57642H7.60791V11.7633H8.91969V17.8877C9.43073 17.9895 9.95906 18.0433 10.5 18.0433C10.8495 18.0433 11.1986 18.0208 11.5451 17.9758Z" fill="white"/>
<defs>
<linearGradient id="paint0_linear_198_11626" x1="10.5" y1="1.80998" x2="10.5" y2="18.7293" gradientUnits="userSpaceOnUse">
<stop stop-color="#00B2FF"/>
<stop offset="1" stop-color="#006AFF"/>
</linearGradient>
</defs>
</svg>
