<svg width="20" height="20" viewBox="0 0 20 20" fill="none" xmlns="http://www.w3.org/2000/svg">
<mask id="path-1-inside-1_41_6607" fill="white">
<path d="M6.875 5C6.875 4.83424 6.94085 4.67527 7.05806 4.55806C7.17527 4.44085 7.33424 4.375 7.5 4.375H16.875C17.0408 4.375 17.1997 4.44085 17.3169 4.55806C17.4342 4.67527 17.5 4.83424 17.5 5C17.5 5.16576 17.4342 5.32473 17.3169 5.44194C17.1997 5.55915 17.0408 5.625 16.875 5.625H7.5C7.33424 5.625 7.17527 5.55915 7.05806 5.44194C6.94085 5.32473 6.875 5.16576 6.875 5ZM16.875 9.375H7.50046C7.3347 9.375 7.17573 9.44085 7.05852 9.55806C6.94131 9.67527 6.87546 9.83424 6.87546 10C6.87546 10.1658 6.94131 10.3247 7.05852 10.4419C7.17573 10.5592 7.3347 10.625 7.50046 10.625H16.875C17.0408 10.625 17.1997 10.5592 17.3169 10.4419C17.4342 10.3247 17.5 10.1658 17.5 10C17.5 9.83424 17.4342 9.67527 17.3169 9.55806C17.1997 9.44085 17.0408 9.375 16.875 9.375ZM16.875 14.375H7.50046C7.3347 14.375 7.17573 14.4408 7.05852 14.5581C6.94131 14.6753 6.87546 14.8342 6.87546 15C6.87546 15.1658 6.94131 15.3247 7.05852 15.4419C7.17573 15.5592 7.3347 15.625 7.50046 15.625H16.875C17.0408 15.625 17.1997 15.5592 17.3169 15.4419C17.4342 15.3247 17.5 15.1658 17.5 15C17.5 14.8342 17.4342 14.6753 17.3169 14.5581C17.1997 14.4408 17.0408 14.375 16.875 14.375ZM4.375 4.375H3.125C2.95924 4.375 2.80027 4.44085 2.68306 4.55806C2.56585 4.67527 2.5 4.83424 2.5 5C2.5 5.16576 2.56585 5.32473 2.68306 5.44194C2.80027 5.55915 2.95924 5.625 3.125 5.625H4.375C4.54076 5.625 4.69973 5.55915 4.81694 5.44194C4.93415 5.32473 5 5.16576 5 5C5 4.83424 4.93415 4.67527 4.81694 4.55806C4.69973 4.44085 4.54076 4.375 4.375 4.375ZM4.375 9.375H3.12546C2.9597 9.375 2.80073 9.44085 2.68352 9.55806C2.56631 9.67527 2.50046 9.83424 2.50046 10C2.50046 10.1658 2.56631 10.3247 2.68352 10.4419C2.80073 10.5592 2.9597 10.625 3.12546 10.625H4.375C4.54076 10.625 4.69973 10.5592 4.81694 10.4419C4.93415 10.3247 5 10.1658 5 10C5 9.83424 4.93415 9.67527 4.81694 9.55806C4.69973 9.44085 4.54076 9.375 4.375 9.375ZM4.375 14.375H3.12546C2.9597 14.375 2.80073 14.4408 2.68352 14.5581C2.56631 14.6753 2.50046 14.8342 2.50046 15C2.50046 15.1658 2.56631 15.3247 2.68352 15.4419C2.80073 15.5592 2.9597 15.625 3.12546 15.625H4.375C4.54076 15.625 4.69973 15.5592 4.81694 15.4419C4.93415 15.3247 5 15.1658 5 15C5 14.8342 4.93415 14.6753 4.81694 14.5581C4.69973 14.4408 4.54076 14.375 4.375 14.375Z"/>
</mask>
<path d="M6.875 5C6.875 4.83424 6.94085 4.67527 7.05806 4.55806C7.17527 4.44085 7.33424 4.375 7.5 4.375H16.875C17.0408 4.375 17.1997 4.44085 17.3169 4.55806C17.4342 4.67527 17.5 4.83424 17.5 5C17.5 5.16576 17.4342 5.32473 17.3169 5.44194C17.1997 5.55915 17.0408 5.625 16.875 5.625H7.5C7.33424 5.625 7.17527 5.55915 7.05806 5.44194C6.94085 5.32473 6.875 5.16576 6.875 5ZM16.875 9.375H7.50046C7.3347 9.375 7.17573 9.44085 7.05852 9.55806C6.94131 9.67527 6.87546 9.83424 6.87546 10C6.87546 10.1658 6.94131 10.3247 7.05852 10.4419C7.17573 10.5592 7.3347 10.625 7.50046 10.625H16.875C17.0408 10.625 17.1997 10.5592 17.3169 10.4419C17.4342 10.3247 17.5 10.1658 17.5 10C17.5 9.83424 17.4342 9.67527 17.3169 9.55806C17.1997 9.44085 17.0408 9.375 16.875 9.375ZM16.875 14.375H7.50046C7.3347 14.375 7.17573 14.4408 7.05852 14.5581C6.94131 14.6753 6.87546 14.8342 6.87546 15C6.87546 15.1658 6.94131 15.3247 7.05852 15.4419C7.17573 15.5592 7.3347 15.625 7.50046 15.625H16.875C17.0408 15.625 17.1997 15.5592 17.3169 15.4419C17.4342 15.3247 17.5 15.1658 17.5 15C17.5 14.8342 17.4342 14.6753 17.3169 14.5581C17.1997 14.4408 17.0408 14.375 16.875 14.375ZM4.375 4.375H3.125C2.95924 4.375 2.80027 4.44085 2.68306 4.55806C2.56585 4.67527 2.5 4.83424 2.5 5C2.5 5.16576 2.56585 5.32473 2.68306 5.44194C2.80027 5.55915 2.95924 5.625 3.125 5.625H4.375C4.54076 5.625 4.69973 5.55915 4.81694 5.44194C4.93415 5.32473 5 5.16576 5 5C5 4.83424 4.93415 4.67527 4.81694 4.55806C4.69973 4.44085 4.54076 4.375 4.375 4.375ZM4.375 9.375H3.12546C2.9597 9.375 2.80073 9.44085 2.68352 9.55806C2.56631 9.67527 2.50046 9.83424 2.50046 10C2.50046 10.1658 2.56631 10.3247 2.68352 10.4419C2.80073 10.5592 2.9597 10.625 3.12546 10.625H4.375C4.54076 10.625 4.69973 10.5592 4.81694 10.4419C4.93415 10.3247 5 10.1658 5 10C5 9.83424 4.93415 9.67527 4.81694 9.55806C4.69973 9.44085 4.54076 9.375 4.375 9.375ZM4.375 14.375H3.12546C2.9597 14.375 2.80073 14.4408 2.68352 14.5581C2.56631 14.6753 2.50046 14.8342 2.50046 15C2.50046 15.1658 2.56631 15.3247 2.68352 15.4419C2.80073 15.5592 2.9597 15.625 3.12546 15.625H4.375C4.54076 15.625 4.69973 15.5592 4.81694 15.4419C4.93415 15.3247 5 15.1658 5 15C5 14.8342 4.93415 14.6753 4.81694 14.5581C4.69973 14.4408 4.54076 14.375 4.375 14.375Z" fill="#191B1C"/>
<path d="M7.5 4.375V3.125H7.49999L7.5 4.375ZM7.5 5.625L7.49999 6.875H7.5V5.625ZM2.5 5H1.25H2.5ZM8.125 5.00001C8.125 5.16577 8.05915 5.32474 7.94194 5.44194L6.17418 3.67418C5.82255 4.0258 5.62501 4.50271 5.625 4.99999L8.125 5.00001ZM7.94194 5.44194C7.82474 5.55915 7.66577 5.625 7.50001 5.625L7.49999 3.125C7.00271 3.12501 6.5258 3.32255 6.17418 3.67418L7.94194 5.44194ZM7.5 5.625H16.875V3.125H7.5V5.625ZM16.875 5.625C16.7092 5.625 16.5503 5.55915 16.4331 5.44194L18.2008 3.67417C17.8492 3.32254 17.3723 3.125 16.875 3.125V5.625ZM16.4331 5.44194C16.3158 5.32473 16.25 5.16576 16.25 5H18.75C18.75 4.50272 18.5525 4.02581 18.2008 3.67417L16.4331 5.44194ZM16.25 5C16.25 4.83424 16.3158 4.67527 16.4331 4.55806L18.2008 6.32583C18.5525 5.97419 18.75 5.49728 18.75 5H16.25ZM16.4331 4.55806C16.5503 4.44085 16.7092 4.375 16.875 4.375V6.875C17.3723 6.875 17.8492 6.67746 18.2008 6.32583L16.4331 4.55806ZM16.875 4.375H7.5V6.875H16.875V4.375ZM7.50001 4.375C7.66577 4.375 7.82474 4.44085 7.94194 4.55806L6.17418 6.32582C6.5258 6.67745 7.00271 6.87499 7.49999 6.875L7.50001 4.375ZM7.94194 4.55806C8.05915 4.67526 8.125 4.83423 8.125 4.99999L5.625 5.00001C5.62501 5.49729 5.82255 5.9742 6.17418 6.32582L7.94194 4.55806ZM16.875 8.125H7.50046V10.625H16.875V8.125ZM7.50046 8.125C7.00318 8.125 6.52626 8.32254 6.17463 8.67417L7.9424 10.4419C7.82519 10.5592 7.66622 10.625 7.50046 10.625V8.125ZM6.17463 8.67417C5.823 9.0258 5.62546 9.50272 5.62546 10H8.12546C8.12546 10.1658 8.05961 10.3247 7.9424 10.4419L6.17463 8.67417ZM5.62546 10C5.62546 10.4973 5.823 10.9742 6.17463 11.3258L7.9424 9.55806C8.05961 9.67527 8.12546 9.83424 8.12546 10H5.62546ZM6.17463 11.3258C6.52627 11.6775 7.00318 11.875 7.50046 11.875V9.375C7.66622 9.375 7.82519 9.44085 7.9424 9.55806L6.17463 11.3258ZM7.50046 11.875H16.875V9.375H7.50046V11.875ZM16.875 11.875C17.3723 11.875 17.8492 11.6775 18.2008 11.3258L16.4331 9.55806C16.5503 9.44085 16.7092 9.375 16.875 9.375V11.875ZM18.2008 11.3258C18.5525 10.9742 18.75 10.4973 18.75 10H16.25C16.25 9.83424 16.3158 9.67527 16.4331 9.55806L18.2008 11.3258ZM18.75 10C18.75 9.50272 18.5525 9.02581 18.2008 8.67417L16.4331 10.4419C16.3158 10.3247 16.25 10.1658 16.25 10H18.75ZM18.2008 8.67417C17.8492 8.32254 17.3723 8.125 16.875 8.125V10.625C16.7092 10.625 16.5503 10.5592 16.4331 10.4419L18.2008 8.67417ZM16.875 13.125H7.50046V15.625H16.875V13.125ZM7.50046 13.125C7.00318 13.125 6.52627 13.3225 6.17463 13.6742L7.9424 15.4419C7.82519 15.5592 7.66622 15.625 7.50046 15.625V13.125ZM6.17463 13.6742C5.823 14.0258 5.62546 14.5027 5.62546 15H8.12546C8.12546 15.1658 8.05961 15.3247 7.9424 15.4419L6.17463 13.6742ZM5.62546 15C5.62546 15.4973 5.823 15.9742 6.17463 16.3258L7.9424 14.5581C8.05961 14.6753 8.12546 14.8342 8.12546 15H5.62546ZM6.17463 16.3258C6.52627 16.6775 7.00318 16.875 7.50046 16.875V14.375C7.66622 14.375 7.82519 14.4408 7.9424 14.5581L6.17463 16.3258ZM7.50046 16.875H16.875V14.375H7.50046V16.875ZM16.875 16.875C17.3723 16.875 17.8492 16.6775 18.2008 16.3258L16.4331 14.5581C16.5503 14.4408 16.7092 14.375 16.875 14.375V16.875ZM18.2008 16.3258C18.5525 15.9742 18.75 15.4973 18.75 15H16.25C16.25 14.8342 16.3158 14.6753 16.4331 14.5581L18.2008 16.3258ZM18.75 15C18.75 14.5027 18.5525 14.0258 18.2008 13.6742L16.4331 15.4419C16.3158 15.3247 16.25 15.1658 16.25 15H18.75ZM18.2008 13.6742C17.8492 13.3225 17.3723 13.125 16.875 13.125V15.625C16.7092 15.625 16.5503 15.5592 16.4331 15.4419L18.2008 13.6742ZM4.375 3.125H3.125V5.625H4.375V3.125ZM3.125 3.125C2.62772 3.125 2.1508 3.32254 1.79917 3.67417L3.56694 5.44194C3.44973 5.55915 3.29076 5.625 3.125 5.625V3.125ZM1.79917 3.67417C1.44754 4.0258 1.25 4.50272 1.25 5H3.75C3.75 5.16576 3.68415 5.32473 3.56694 5.44194L1.79917 3.67417ZM1.25 5C1.25 5.49728 1.44754 5.9742 1.79917 6.32583L3.56694 4.55806C3.68415 4.67527 3.75 4.83424 3.75 5H1.25ZM1.79917 6.32583C2.1508 6.67746 2.62772 6.875 3.125 6.875V4.375C3.29076 4.375 3.44973 4.44085 3.56694 4.55806L1.79917 6.32583ZM3.125 6.875H4.375V4.375H3.125V6.875ZM4.375 6.875C4.87228 6.875 5.3492 6.67746 5.70083 6.32583L3.93306 4.55806C4.05027 4.44085 4.20924 4.375 4.375 4.375V6.875ZM5.70083 6.32583C6.05246 5.9742 6.25 5.49728 6.25 5H3.75C3.75 4.83424 3.81585 4.67527 3.93306 4.55806L5.70083 6.32583ZM6.25 5C6.25 4.50272 6.05246 4.0258 5.70083 3.67417L3.93306 5.44194C3.81585 5.32473 3.75 5.16576 3.75 5H6.25ZM5.70083 3.67417C5.3492 3.32254 4.87228 3.125 4.375 3.125V5.625C4.20924 5.625 4.05027 5.55915 3.93306 5.44194L5.70083 3.67417ZM4.375 8.125H3.12546V10.625H4.375V8.125ZM3.12546 8.125C2.62818 8.125 2.15126 8.32254 1.79963 8.67417L3.5674 10.4419C3.45019 10.5592 3.29122 10.625 3.12546 10.625V8.125ZM1.79963 8.67417C1.448 9.0258 1.25046 9.50272 1.25046 10H3.75046C3.75046 10.1658 3.68461 10.3247 3.5674 10.4419L1.79963 8.67417ZM1.25046 10C1.25046 10.4973 1.448 10.9742 1.79963 11.3258L3.5674 9.55806C3.68461 9.67527 3.75046 9.83424 3.75046 10H1.25046ZM1.79963 11.3258C2.15126 11.6775 2.62818 11.875 3.12546 11.875V9.375C3.29122 9.375 3.45019 9.44085 3.5674 9.55806L1.79963 11.3258ZM3.12546 11.875H4.375V9.375H3.12546V11.875ZM4.375 11.875C4.87228 11.875 5.34919 11.6775 5.70083 11.3258L3.93306 9.55806C4.05027 9.44085 4.20924 9.375 4.375 9.375V11.875ZM5.70083 11.3258C6.05246 10.9742 6.25 10.4973 6.25 10H3.75C3.75 9.83424 3.81585 9.67527 3.93306 9.55806L5.70083 11.3258ZM6.25 10C6.25 9.50272 6.05246 9.0258 5.70083 8.67417L3.93306 10.4419C3.81585 10.3247 3.75 10.1658 3.75 10H6.25ZM5.70083 8.67417C5.3492 8.32254 4.87228 8.125 4.375 8.125V10.625C4.20924 10.625 4.05027 10.5592 3.93306 10.4419L5.70083 8.67417ZM4.375 13.125H3.12546V15.625H4.375V13.125ZM3.12546 13.125C2.62818 13.125 2.15126 13.3225 1.79963 13.6742L3.5674 15.4419C3.45019 15.5592 3.29122 15.625 3.12546 15.625V13.125ZM1.79963 13.6742C1.448 14.0258 1.25046 14.5027 1.25046 15H3.75046C3.75046 15.1658 3.68461 15.3247 3.5674 15.4419L1.79963 13.6742ZM1.25046 15C1.25046 15.4973 1.448 15.9742 1.79963 16.3258L3.5674 14.5581C3.68461 14.6753 3.75046 14.8342 3.75046 15H1.25046ZM1.79963 16.3258C2.15126 16.6775 2.62818 16.875 3.12546 16.875V14.375C3.29122 14.375 3.45019 14.4408 3.5674 14.5581L1.79963 16.3258ZM3.12546 16.875H4.375V14.375H3.12546V16.875ZM4.375 16.875C4.87228 16.875 5.34919 16.6775 5.70083 16.3258L3.93306 14.5581C4.05027 14.4408 4.20924 14.375 4.375 14.375V16.875ZM5.70083 16.3258C6.05246 15.9742 6.25 15.4973 6.25 15H3.75C3.75 14.8342 3.81585 14.6753 3.93306 14.5581L5.70083 16.3258ZM6.25 15C6.25 14.5027 6.05246 14.0258 5.70083 13.6742L3.93306 15.4419C3.81585 15.3247 3.75 15.1658 3.75 15H6.25ZM5.70083 13.6742C5.34919 13.3225 4.87228 13.125 4.375 13.125V15.625C4.20924 15.625 4.05027 15.5592 3.93306 15.4419L5.70083 13.6742Z" fill="#626C70" mask="url(#path-1-inside-1_41_6607)"/>
</svg>
