<svg id="ad7fbc15-3f59-4d18-9ebf-2496e796da48" data-name="Layer 1" xmlns="http://www.w3.org/2000/svg" viewBox="0 0 466.42123 192.75571">
  <g>
    <path d="M.01382.01377Q232.876.01377,465.73815,0c.55756,0,.68319.12544.68308.683q-.022,95.69489,0,191.38977c.00011.55752-.12552.683-.68308.683q-232.52752-.02115-465.05508,0c-.55755.00006-.6832-.12545-.68307-.683Q.022,96.04325.01382.01377ZM32.35774,91.79489c-.12441,5.72887,1.2778,13.35977,4.14636,20.74161a57.32062,57.32062,0,0,0,13.92226,21.06761,59.12729,59.12729,0,0,0,16.19579,11.14433,61.55494,61.55494,0,0,0,18.42766,5.36882,66.54493,66.54493,0,0,0,11.86878.322,53.60557,53.60557,0,0,0,13.89763-2.8479,59.87458,59.87458,0,0,0,22.64405-13.40378,61.18,61.18,0,0,0,11.61729-14.94513,55.674,55.674,0,0,0,7.06092-21.37836,61.44832,61.44832,0,0,0-.59437-18.04725,66.95123,66.95123,0,0,0-2.6533-9.47729c-.6688-1.8675-1.463-3.69271-2.27272-5.50968a50.32917,50.32917,0,0,0-4.6988-8.25341,66.58461,66.58461,0,0,0-4.77517-5.97853,54.85173,54.85173,0,0,0-7.42736-7.13124,64.92427,64.92427,0,0,0-23.36575-11.357A52.92467,52.92467,0,0,0,84.8573,30.85241a65.40139,65.40139,0,0,0-19.83755,6.15,54.77794,54.77794,0,0,0-12.74792,8.70063,63.95421,63.95421,0,0,0-6.274,6.79437,57.41369,57.41369,0,0,0-9.61616,16.62419A63.0729,63.0729,0,0,0,32.35774,91.79489Zm182.23308,4.23837a5.02721,5.02721,0,0,1,1.92317-1.102,22.83314,22.83314,0,0,0,6.63977-4.21888,23.93287,23.93287,0,0,0,2.02818-2.40083,21.98473,21.98473,0,0,0,3.56122-5.82791,20.78117,20.78117,0,0,0-3.35958-21.223c-4.51875-5.1366-10.46345-7.45581-17.07136-8.30416a67.00559,67.00559,0,0,0-8.68828-.27814q-12.45392.02744-24.90783.06995c-.81732.00223-1.63473-.00758-2.452-.01674-.3323-.00372-.55035.08348-.63218.46548-.45027,2.10229-.67286,4.24237-1.00284,6.362-.46443,2.98334-.90308,5.97-1.46157,8.93772-.49027,2.60532-.94248,5.21495-1.27453,7.8476q-.46042,3.65082-1.12142,7.27575c-.459,2.50805-.84289,5.03029-1.23176,7.55062-.38186,2.47493-.6681,4.966-1.1063,7.43049-.54139,3.04474-1.00824,6.0988-1.43841,9.16022-.3107,2.21117-.66075,4.41691-1.00357,6.62347-.39909,2.56889-.81933,5.13453-1.212,7.7044-.37842,2.47633-.674,4.96681-1.11259,7.4321-.64307,3.61474-1.36848,7.21511-2.09157,10.815-.11518.57333.04564.65874.57049.65778,6.64189-.01213,13.28408.03281,19.9257-.01031,6.95611-.04515,13.91831.262,20.86529-.41607a40.1625,40.1625,0,0,0,10.75106-2.36114,27.91,27.91,0,0,0,15.026-12.89385,23.14388,23.14388,0,0,0,2.297-16.03836c-1.00459-4.94325-4.199-8.3981-8.3054-11.09523C217.426,97.33884,215.99176,96.78591,214.59082,96.03326ZM398.98566,79.19365a16.235,16.235,0,0,1,.15374-1.6307c.43763-1.9741.82745-3.95885,1.27031-5.93172.09517-.42388.01917-.515-.40143-.4963-1.23706.05506-2.47593.1052-3.71382.09981-4.70556-.02049-9.40074.235-14.09682.48118-.5279.02767-.81416.14-.89412.78129-.49228,3.95129-1.08633,7.89005-1.56594,11.84275-.42318,3.48756-.99316,6.95055-1.551,10.41673-.48691,3.02585-.94321,6.05671-1.44427,9.08018-.57746,3.48474-1.39235,6.92942-1.80188,10.44238-.593,5.08617-1.53831,10.118-2.31126,15.17633-.515,3.37058-1.22882,6.70517-1.85588,10.05549-.26581,1.42037-.2453,1.43268,1.18924,1.43765q8.14141.02824,16.28278.04556c1.23433.0028,1.2319-.00457,1.46461-1.184.08118-.41149.19933-.8166.26357-1.23037.41679-2.68485.80105-5.37494,1.23861-8.05635q.91254-5.59218,1.88877-11.17394c.37718-2.16806.57851-4.36056.92588-6.52909.2456-1.53307.48259-3.07045.74234-4.60262.285-1.68053.42235-3.3886.76192-5.05661.29141-1.43167.453-2.88148.74557-4.31186a33.20247,33.20247,0,0,1,1.15568-4.53907,10.4486,10.4486,0,0,1,4.1077-4.91,22.57636,22.57636,0,0,1,8.44908-3.91817,5.8157,5.8157,0,0,1,4.67669.67636,5.21409,5.21409,0,0,1,1.89095,2.99983,16.84812,16.84812,0,0,1,.12828,6.88751c-.31542,2.69993-.857,5.37076-1.19294,8.073-.30837,2.48-.70665,4.95285-1.17638,7.40762-.70073,3.662-1.24984,7.34427-1.79571,11.0313-.47641,3.21826-1.20986,6.39837-1.82483,9.59627-.51787,2.69325-1.02475,5.38861-1.54535,8.08132-.11194.57906-.00879.80763.68573.79756,3.29561-.04787,6.59234-.042,9.88845-.022,2.45305.01484,4.906.07391,7.35856.12759a.98483.98483,0,0,0,1.17377-.97627c.525-3.44169,1.053-6.88464,1.68279-10.30823.88173-4.79366,1.72065-9.59473,2.4338-14.41484.28724-1.94148.66119-3.86856.93555-5.81324.24258-1.71981.55262-3.44052.85751-5.15654.37224-2.0954.67284-4.20339,1.0286-6.30269.40467-2.3877.88834-4.76469,1.06386-7.19445a20.73675,20.73675,0,0,0,.15617-5.09129c-.26775-1.58048-.514-3.17413-.8829-4.72534A13.93386,13.93386,0,0,0,432.28,75.05648a14.30275,14.30275,0,0,0-7.98156-4.55283,23.96147,23.96147,0,0,0-12.42852,1.13227,32.975,32.975,0,0,0-8.38982,4.69765A50.31836,50.31836,0,0,1,398.98566,79.19365Zm-58.2029,62.99252a33.47534,33.47534,0,0,0,6.07267-.32,40.81622,40.81622,0,0,0,11.16969-3.079,2.17446,2.17446,0,0,0,.92592-.85246,10.00048,10.00048,0,0,0,1.217-3.709c.67971-3.41288,1.22507-6.85257,1.81324-10.28344.04441-.259.16579-.61066-.04491-.77727-.22588-.1786-.50274.09685-.75647.17585-.09382.02921-.17918.08445-.271.12126-2.995,1.20072-5.81481,2.85944-9.03275,3.477a28.46157,28.46157,0,0,1-4.25369.82845,53.33724,53.33724,0,0,1-6.62327-.00784,8.08789,8.08789,0,0,1-5.44609-2.46582,13.23477,13.23477,0,0,1-2.67522-3.36172,19.81361,19.81361,0,0,1-2.095-6.48973c-.10555-1.08947-.13369-1.15137.9712-1.181,1.84346-.04952,3.66832-.29531,5.50037-.46328,1.34882-.12366,2.69447-.2825,4.041-.4307a58.88855,58.88855,0,0,0,8.12629-1.594,57.85138,57.85138,0,0,0,7.512-2.59306,31.40871,31.40871,0,0,0,6.19736-3.43718,19.97008,19.97008,0,0,0,4.01507-3.69574,22.07439,22.07439,0,0,0,3.27615-5.612,21.26752,21.26752,0,0,0,1.54383-6.94956,18.54756,18.54756,0,0,0-.39385-4.36751,14.33627,14.33627,0,0,0-2.85594-6.67554c-3.2419-3.9933-7.6096-6.14767-12.43143-7.48365a26.69589,26.69589,0,0,0-10.98589-.46076,35.34416,35.34416,0,0,0-24.40642,14.21062,43.66163,43.66163,0,0,0-6.30589,12.35361,49.14889,49.14889,0,0,0-2.29474,10.77591,54.2144,54.2144,0,0,0,.184,11.64314,25.3168,25.3168,0,0,0,4.54606,12.16562,23.28679,23.28679,0,0,0,7.99811,6.96165A31.02157,31.02157,0,0,0,340.78276,142.18617ZM260.42019,78.60458a3.08413,3.08413,0,0,1,.16343-1.2829,37.35984,37.35984,0,0,0,1.42811-5.57872c.06636-.3624-.04154-.40557-.36779-.41148-5.72487-.10374-11.44419.02722-17.16259.31088-.81565.04045-1.03433.37491-1.13826,1.08295-.54231,3.69462-1.2096,7.37087-1.64553,11.08119-.3868,3.29212-.95018,6.55607-1.54116,9.81563-.54248,2.992-.95733,6.00353-1.419,9.00813-.5667,3.68813-1.296,7.353-1.79206,11.04982-.68087,5.07383-1.51792,10.12119-2.35367,15.16922-.62917,3.80026-1.32589,7.58956-2.02427,11.37789-.11133.60389.00493.76752.63285.76538,4.73294-.0162,9.466.00525,14.199.00864.96622.00069,1.93268-.01695,2.89861-.0418a.97723.97723,0,0,0,1.08884-.93349c.56093-3.486,1.17477-6.96344,1.76027-10.44554.56414-3.35508,1.04769-6.72557,1.69871-10.06353.41338-2.11941.7847-4.24749,1.14389-6.37355.25069-1.48376.41437-2.997.63114-4.48894.26853-1.84823.53719-3.704.88362-5.53883.3203-1.6965.57928-3.4031.86058-5.10354a8.99553,8.99553,0,0,1,3.44393-6.20669,26.8,26.8,0,0,1,6.77041-4.089,11.85094,11.85094,0,0,1,6.357-.71371c1.40553.26471,2.80038.58868,4.19451.90995.69782.16081,1.03857-.10616,1.232-.77618.38466-1.33259.55646-2.7047.83805-4.05593A100.27769,100.27769,0,0,0,283.22416,72.095c.12672-1.34075.12536-1.37937-1.2228-1.642a22.46246,22.46246,0,0,0-5.77821-.04393,16.47288,16.47288,0,0,0-4.37983.73956c-3.059,1.05814-5.51945,3.0572-7.9731,5.0603A17.93175,17.93175,0,0,1,260.42019,78.60458Zm39.33867-7.17889-.00026-.23077q-4.38441,0-8.76881-.003c-.50232-.001-.90045.01074-.86249.71961a6.59764,6.59764,0,0,1-.203,1.52706c-.41353,2.21122-.68514,4.44618-1.03941,6.666-.24318,1.52358-.51254,3.04963-.75481,4.575-.44577,2.80662-.98449,5.5987-1.39654,8.412-.30976,2.11466-.61388,4.23076-.96964,6.33794-.49842,2.95211-1.05124,5.89547-1.39977,8.8707-.263,2.24474-.64041,4.47126-1.00664,6.70027-.46957,2.858-.98554,5.711-1.34849,8.583-.39167,3.0993-.99723,6.15425-1.62365,9.20839-.50283,2.45139-1.03006,4.89782-1.52014,7.35173-.07714.38631-.27337.8708.5361.861,5.27687-.06409,10.55414-.06966,15.82977.10749.51975.01746,1.041.02164,1.56046.00326.23188-.00821.47019-.00438.55259-.355.24387-1.03759.598-2.047.77058-3.10453.27409-1.67961.57286-3.35517.85453-5.03357.15835-.9434.25954-1.8987.46538-2.83123.25324-1.14722.395-2.31562.64594-3.45644.32453-1.47527.55054-2.96373.81009-4.44765.23569-1.34752.51759-2.6856.672-4.05.16428-1.4521.45589-2.88967.68749-4.33431.18474-1.15243.35941-2.30649.545-3.45879.12149-.75447.2761-1.50421.37735-2.26122.15809-1.182.1891-2.38966.45085-3.54643.235-1.03841.37487-2.09205.54778-3.13342.23459-1.41313.42013-2.84437.64557-4.25823.22436-1.4068.49976-2.81939.69489-4.22742.28572-2.06132.609-4.119.92171-6.17474.35093-2.30715.9725-4.57174,1.39536-6.86973.46-2.50006.82168-5.01808,1.23916-7.52613.07647-.45941.01118-.642-.53828-.63594C305.60623,71.44275,302.68247,71.42569,299.75886,71.42569Zm8.52659-22.78346-.04992,0c0-3.17181-.00545-6.34364.00719-9.5154.00152-.37871-.02825-.59248-.49886-.59635-5.55071-.04568-11.101-.13635-16.6462.2531-.66662.04682-.80292.27768-.80258.89348.00334,5.79834.2497,11.59605.03256,17.39529-.06186,1.65228-.01965,1.65856,1.6869,1.66061,5.10569.0061,10.21151-.00926,15.31693.03036.77915.006.96938-.26769.964-.97653C308.27213,54.73874,308.28545,51.69044,308.28545,48.64223Zm30.64231-10.2044,0,.181c-2.65017,0-5.3007.02262-7.95033-.01539-.69093-.00992-.82342.2346-.78718.86337.3221,5.5912.36792,11.18769.2713,16.78622-.00941.54456.011,1.08962.01616,1.63447.00355.38115.15976.58809.57433.60538.64235.0268,1.28284.135,1.92443.13755,4.70658.01883,9.41334.01459,14.11992.035.46722.002.62971-.10653.649-.61519.12116-3.19678-.00955-6.38653-.15381-9.57878q-.21633-4.78811-.10083-9.583c.008-.35187-.093-.46287-.46519-.46038C344.32639,38.4462,341.62706,38.43783,338.92776,38.43783ZM327.81155,47.971c0-1.66183,0-3.69408,0-5.72634.00007-1.06572-.00991-2.1316.00617-3.19708.00567-.37593-.06267-.50258-.4991-.45587-.711.0761-1.43487.02931-2.15328.03786-4.58371.05455-9.16942-.1149-13.75207.14756-.67731.0388-.8728.24614-.87229.9145.00265,3.544-.059,7.088-.06184,10.632-.00192,2.32891-.00428,4.65958.206,6.98336.05174.572.13855.95662.889,1.09732a8.86294,8.86294,0,0,0,1.63925.06311c4.53488.03315,9.06982.13765,13.60491.02705,1.08289-.02641,1.083-.03491,1.11818-1.15834.00541-.17338.00781-.34689.00908-.52035C327.96605,53.99032,327.975,51.165,327.81155,47.971Zm34.59359-9.55.00007.1918c-3.91482,0-7.82979.015-11.74439-.01406-.68944-.00511-.882.20239-.86249.88645.10243,3.59165.18492,7.18436.22076,10.77723.024,2.40311-.039,4.80714-.069,7.21068-.00566.45466.00541.68627.59765.4101a20.39987,20.39987,0,0,0,2.99308-1.74713c2.42643-1.67868,4.88638-3.30988,7.35337-4.92887,3.04318-1.99711,6.09094-3.98827,9.16673-5.9346a61.50721,61.50721,0,0,0,8.61061-6.65332c.174-.15918.4551-.33919.34378-.603-.12258-.29051-.438-.14857-.66838-.11555-1.296.18579-2.60889.1875-3.90872.26951C370.4343,38.42284,366.41759,38.38578,362.40514,38.421Zm-76.25747,20.487q.26011,0,.52022,0c1.20452.00044,1.24969-.03544,1.29958-1.2163.05017-1.18725.11609-2.375.1219-3.56277.01854-3.78968.00463-7.57951.02112-11.3692.00421-.96436.06659-1.92887.11817-2.89245.026-.48626-.19811-.56817-.58467-.39221-.45031.205-.89984.41523-1.33349.65278-3.7331,2.04483-7.17172,4.54961-10.7015,6.90844-3.59107,2.39979-7.0993,4.92315-10.66394,7.363-1.63286,1.11761-3.35128,2.10915-4.92659,3.31336a2.40673,2.40673,0,0,0-.82219.9377c-.16457.38326-.17294.60176.37077.54443q3.881-.40916,7.78524-.43092C273.61789,58.72528,279.88382,58.6978,286.14767,58.90794ZM166.16073,46.64947a9.38379,9.38379,0,0,0-3.98086-7.749,5.54576,5.54576,0,0,0-4.263-1.39209c-4.503.79959-6.85856,3.81467-6.49983,8.1121a4.07109,4.07109,0,0,0,3.35681,4.14,35.72617,35.72617,0,0,0,3.60906.818c1.27191.23066,1.54171.64344,1.11931,1.87039a9.68308,9.68308,0,0,1-2.89748,4.22263c-1.16111,1.00431-2.35414,1.9717-3.51676,2.97428a2.60313,2.60313,0,0,0-.80022,2.553.83072.83072,0,0,0,1.0271.79939,5.17445,5.17445,0,0,0,2.34987-.837,27.564,27.564,0,0,0,7.66282-7.43385A15.38327,15.38327,0,0,0,166.16073,46.64947Z" style="fill: #00437b"/>
    <path d="M32.35774,91.79489a63.0729,63.0729,0,0,1,4.02391-22.67326,57.41369,57.41369,0,0,1,9.61616-16.62419,63.95421,63.95421,0,0,1,6.274-6.79437,54.77794,54.77794,0,0,1,12.74792-8.70063,65.40139,65.40139,0,0,1,19.83755-6.15A52.92467,52.92467,0,0,1,106.351,32.10973a64.92427,64.92427,0,0,1,23.36575,11.357,54.85173,54.85173,0,0,1,7.42736,7.13124,66.58461,66.58461,0,0,1,4.77517,5.97853,50.32917,50.32917,0,0,1,4.6988,8.25341c.80974,1.817,1.60392,3.64218,2.27272,5.50968a66.95123,66.95123,0,0,1,2.6533,9.47729,61.44832,61.44832,0,0,1,.59437,18.04725,55.674,55.674,0,0,1-7.06092,21.37836,61.18,61.18,0,0,1-11.61729,14.94513,59.87458,59.87458,0,0,1-22.64405,13.40378,53.60557,53.60557,0,0,1-13.89763,2.8479,66.54493,66.54493,0,0,1-11.86878-.322,61.55494,61.55494,0,0,1-18.42766-5.36882,59.12729,59.12729,0,0,1-16.19579-11.14433A57.32062,57.32062,0,0,1,36.5041,112.5365C33.63554,105.15466,32.23333,97.52376,32.35774,91.79489Zm63.264,37.27408c3.59836.08071,9.72991-1.61961,15.33681-4.99038,6.955-4.18122,12.62266-9.66542,16.24709-17.06a32.55881,32.55881,0,0,0,2.1813-5.70759,52.25085,52.25085,0,0,0,1.54517-9.563,24.03492,24.03492,0,0,0-.01357-5.06342,39.13268,39.13268,0,0,0-5.33846-15.27809,40.30088,40.30088,0,0,0-13.87418-13.88641,37.76047,37.76047,0,0,0-19.37723-5.54749,36.07107,36.07107,0,0,0-13.33712,2.4763A38.30941,38.30941,0,0,0,61.413,67.83863a40.459,40.459,0,0,0-6.54407,14.09094,30.95479,30.95479,0,0,0-.39965,15.08612,42.38186,42.38186,0,0,0,13.71315,23.236C75.202,126.2756,83.44944,128.97086,95.62171,129.069Z" style="fill: #fee300"/>
    <path d="M214.59082,96.03326c1.40094.75265,2.83519,1.30558,4.11469,2.146,4.10638,2.69713,7.30081,6.152,8.3054,11.09523a23.14388,23.14388,0,0,1-2.297,16.03836,27.91,27.91,0,0,1-15.026,12.89385,40.1625,40.1625,0,0,1-10.75106,2.36114c-6.947.67809-13.90918.37092-20.86529.41607-6.64162.04312-13.28381-.00182-19.9257.01031-.52485.001-.68567-.08445-.57049-.65778.72309-3.5999,1.4485-7.20027,2.09157-10.815.43856-2.46529.73417-4.95577,1.11259-7.4321.39268-2.56987.81292-5.13551,1.212-7.7044.34282-2.20656.69287-4.4123,1.00357-6.62347.43017-3.06142.897-6.11548,1.43841-9.16022.4382-2.46445.72444-4.95556,1.1063-7.43049.38887-2.52033.77275-5.04257,1.23176-7.55062q.66312-3.6238,1.12142-7.27575c.33205-2.63265.78426-5.24228,1.27453-7.8476.55849-2.96773.99714-5.95438,1.46157-8.93772.33-2.11962.55257-4.2597,1.00284-6.362.08183-.382.29988-.4692.63218-.46548.81729.00916,1.6347.019,2.452.01674q12.4539-.034,24.90783-.06995a67.00559,67.00559,0,0,1,8.68828.27814c6.60791.84835,12.55261,3.16756,17.07136,8.30416a20.78117,20.78117,0,0,1,3.35958,21.223,21.98473,21.98473,0,0,1-3.56122,5.82791,23.93287,23.93287,0,0,1-2.02818,2.40083,22.83314,22.83314,0,0,1-6.63977,4.21888A5.02721,5.02721,0,0,0,214.59082,96.03326ZM186.5946,126.16711l0-.18886a77.87136,77.87136,0,0,0,8.75018-.43457,12.69793,12.69793,0,0,0,11.07389-9.64229,11.3899,11.3899,0,0,0-1.22542-8.41543,9.27871,9.27871,0,0,0-6.4081-4.71448,49.4455,49.4455,0,0,0-6.82545-.625c-1.37567-.0724-2.75765-.05671-4.13513-.214-1.37185-.1566-2.76442-.13388-4.14814-.18282-.32032-.01133-.58661.04088-.57968.4758.02111,1.31992-.349,2.59592-.45646,3.90711-.14493,1.76754-.55678,3.513-.70574,5.28043-.18607,2.20763-.566,4.38459-.90434,6.56583-.38535,2.48471-.90667,4.94959-1.42081,7.41226-.13945.66784.03159.80028.67052.78944C182.38426,126.14484,184.48961,126.16711,186.5946,126.16711ZM194.37485,67.728c-1.51038,0-3.02075-.0028-4.53112.00075-1.69075.004-1.35482-.33144-1.50231,1.37954-.33568,3.8937-.91623,7.75294-1.47528,11.61528-.34641,2.39337-.805,4.77044-1.207,7.15588-.20008,1.18717-.14652,1.29056,1.02786,1.17906,3.65509-.34705,7.32605-.23165,10.98586-.42482a18.51739,18.51739,0,0,0,7.2876-1.7901c5.5183-2.69592,6.88052-9.96476,4.30944-14.1193-1.95423-3.15786-4.93233-4.38488-8.43831-4.75719C198.681,67.7387,196.52656,67.879,194.37485,67.728Z" style="fill: #fee300"/>
    <path d="M398.98566,79.19365a50.31836,50.31836,0,0,0,4.49443-2.86008,32.975,32.975,0,0,1,8.38982-4.69765,23.96147,23.96147,0,0,1,12.42852-1.13227A14.30275,14.30275,0,0,1,432.28,75.05648a13.93386,13.93386,0,0,1,3.25167,6.09911c.36887,1.55121.61515,3.14486.8829,4.72534a20.73675,20.73675,0,0,1-.15617,5.09129c-.17552,2.42976-.65919,4.80675-1.06386,7.19445-.35576,2.0993-.65636,4.20729-1.0286,6.30269-.30489,1.716-.61493,3.43673-.85751,5.15654-.27436,1.94468-.64831,3.87176-.93555,5.81324-.71315,4.82011-1.55207,9.62118-2.4338,14.41484-.62975,3.42359-1.15776,6.86654-1.68279,10.30823a.98483.98483,0,0,1-1.17377.97627c-2.45261-.05368-4.90551-.11275-7.35856-.12759-3.29611-.01995-6.59284-.02584-9.88845.022-.69452.01007-.79767-.2185-.68573-.79756.5206-2.69271,1.02748-5.38807,1.54535-8.08132.615-3.1979,1.34842-6.378,1.82483-9.59627.54587-3.687,1.095-7.36928,1.79571-11.0313.46973-2.45477.868-4.92767,1.17638-7.40762.336-2.70221.87752-5.373,1.19294-8.073a16.84812,16.84812,0,0,0-.12828-6.88751,5.21409,5.21409,0,0,0-1.89095-2.99983,5.8157,5.8157,0,0,0-4.67669-.67636A22.57636,22.57636,0,0,0,401.54,89.40035a10.4486,10.4486,0,0,0-4.1077,4.91,33.20247,33.20247,0,0,0-1.15568,4.53907c-.29258,1.43038-.45416,2.88019-.74557,4.31186-.33957,1.668-.47692,3.37608-.76192,5.05661-.25975,1.53217-.49674,3.06955-.74234,4.60262-.34737,2.16853-.5487,4.361-.92588,6.52909q-.97125,5.58233-1.88877,11.17394c-.43756,2.68141-.82182,5.3715-1.23861,8.05635-.06424.41377-.18239.81888-.26357,1.23037-.23271,1.17944-.23028,1.18681-1.46461,1.184q-8.1414-.01849-16.28278-.04556c-1.43454-.005-1.45505-.01728-1.18924-1.43765.62706-3.35032,1.34083-6.68491,1.85588-10.05549.77295-5.05834,1.71829-10.09016,2.31126-15.17633.40953-3.513,1.22442-6.95764,1.80188-10.44238.50106-3.02347.95736-6.05433,1.44427-9.08018.55782-3.46618,1.1278-6.92917,1.551-10.41673.47961-3.9527,1.07366-7.89146,1.56594-11.84275.08-.64127.36622-.75362.89412-.78129,4.69608-.24614,9.39126-.50167,14.09682-.48118,1.23789.00539,2.47676-.04475,3.71382-.09981.4206-.01871.4966.07242.40143.4963-.44286,1.97287-.83268,3.95762-1.27031,5.93172A16.235,16.235,0,0,0,398.98566,79.19365Z" style="fill: #fee300"/>
    <path d="M340.78276,142.18617A31.02157,31.02157,0,0,1,325.02,138.60882a23.28679,23.28679,0,0,1-7.99811-6.96165,25.3168,25.3168,0,0,1-4.54606-12.16562,54.2144,54.2144,0,0,1-.184-11.64314,49.14889,49.14889,0,0,1,2.29474-10.77591,43.66163,43.66163,0,0,1,6.30589-12.35361,35.34416,35.34416,0,0,1,24.40642-14.21062,26.69589,26.69589,0,0,1,10.98589.46076c4.82183,1.336,9.18953,3.49035,12.43143,7.48365a14.33627,14.33627,0,0,1,2.85594,6.67554,18.54756,18.54756,0,0,1,.39385,4.36751,21.26752,21.26752,0,0,1-1.54383,6.94956,22.07439,22.07439,0,0,1-3.27615,5.612,19.97008,19.97008,0,0,1-4.01507,3.69574,31.40871,31.40871,0,0,1-6.19736,3.43718,57.85138,57.85138,0,0,1-7.512,2.59306,58.88855,58.88855,0,0,1-8.12629,1.594c-1.34649.1482-2.69214.307-4.041.4307-1.832.168-3.65691.41376-5.50037.46328-1.10489.02966-1.07675.09156-.9712,1.181a19.81361,19.81361,0,0,0,2.095,6.48973,13.23477,13.23477,0,0,0,2.67522,3.36172,8.08789,8.08789,0,0,0,5.44609,2.46582,53.33724,53.33724,0,0,0,6.62327.00784,28.46157,28.46157,0,0,0,4.25369-.82845c3.21794-.61752,6.03771-2.27624,9.03275-3.477.09183-.03681.17719-.09205.271-.12126.25373-.079.53059-.35445.75647-.17585.2107.16661.08932.51826.04491.77727-.58817,3.43087-1.13353,6.87056-1.81324,10.28344a10.00048,10.00048,0,0,1-1.217,3.709,2.17446,2.17446,0,0,1-.92592.85246,40.81622,40.81622,0,0,1-11.16969,3.079A33.47534,33.47534,0,0,1,340.78276,142.18617Zm13.33658-51.84241a6.82312,6.82312,0,0,0-2.09039-4.68862c-2.12924-2.22183-4.02673-2.68929-6.736-1.56973a16.84235,16.84235,0,0,0-7.79849,6.272,40.06027,40.06027,0,0,0-5.285,12.06439c-.17443.66528.25736.68437.63069.62684a100.43309,100.43309,0,0,0,10.29529-2.11631,17.09644,17.09644,0,0,0,9.30626-6.00992A7.31238,7.31238,0,0,0,354.11934,90.34376Z" style="fill: #fee300"/>
    <path d="M260.42019,78.60458a17.93175,17.93175,0,0,0,3.45-2.3957c2.45365-2.0031,4.91408-4.00216,7.9731-5.0603a16.47288,16.47288,0,0,1,4.37983-.73956,22.46246,22.46246,0,0,1,5.77821.04393c1.34816.26265,1.34952.30127,1.2228,1.642a100.27769,100.27769,0,0,1-2.02344,10.98547c-.28159,1.35123-.45339,2.72334-.83805,4.05593-.1934.67-.53415.937-1.232.77618-1.39413-.32127-2.789-.64524-4.19451-.90995a11.85094,11.85094,0,0,0-6.357.71371,26.8,26.8,0,0,0-6.77041,4.089,8.99553,8.99553,0,0,0-3.44393,6.20669c-.2813,1.70044-.54028,3.407-.86058,5.10354-.34643,1.83485-.61509,3.6906-.88362,5.53883-.21677,1.492-.38045,3.00518-.63114,4.48894-.35919,2.12606-.73051,4.25414-1.14389,6.37355-.651,3.338-1.13457,6.70845-1.69871,10.06353-.5855,3.4821-1.19934,6.95955-1.76027,10.44554a.97723.97723,0,0,1-1.08884.93349c-.96593.02485-1.93239.04249-2.89861.0418-4.733-.00339-9.466-.02484-14.199-.00864-.62792.00214-.74418-.16149-.63285-.76538.69838-3.78833,1.3951-7.57763,2.02427-11.37789.83575-5.048,1.6728-10.09539,2.35367-15.16922.49609-3.6968,1.22536-7.36169,1.79206-11.04982.46169-3.0046.87654-6.0161,1.419-9.00813.591-3.25956,1.15436-6.52351,1.54116-9.81563.43593-3.71032,1.10322-7.38657,1.64553-11.08119.10393-.708.32261-1.0425,1.13826-1.08295,5.7184-.28366,11.43772-.41462,17.16259-.31088.32625.00591.43415.04908.36779.41148a37.35984,37.35984,0,0,1-1.42811,5.57872A3.08413,3.08413,0,0,0,260.42019,78.60458Z" style="fill: #fee300"/>
    <path d="M299.75886,71.42569c2.92361,0,5.84737.01706,8.77063-.01516.54946-.00606.61475.17653.53828.63594-.41748,2.508-.77919,5.02607-1.23916,7.52613-.42286,2.298-1.04443,4.56258-1.39536,6.86973-.3127,2.0557-.636,4.11342-.92171,6.17474-.19513,1.408-.47053,2.82062-.69489,4.22742-.22544,1.41386-.411,2.8451-.64557,4.25823-.17291,1.04137-.31282,2.095-.54778,3.13342-.26175,1.15677-.29276,2.36447-.45085,3.54643-.10125.757-.25586,1.50675-.37735,2.26122-.18559,1.1523-.36026,2.30636-.545,3.45879-.2316,1.44464-.52321,2.88221-.68749,4.33431-.15439,1.36445-.43629,2.70253-.672,4.05-.25955,1.48392-.48556,2.97238-.81009,4.44765-.25093,1.14082-.3927,2.30922-.64594,3.45644-.20584.93253-.307,1.88783-.46538,2.83123-.28167,1.6784-.58044,3.354-.85453,5.03357-.17258,1.05748-.52671,2.06694-.77058,3.10453-.0824.35063-.32071.3468-.55259.355-.51951.01838-1.04071.0142-1.56046-.00326-5.27563-.17715-10.5529-.17158-15.82977-.10749-.80947.00983-.61324-.47466-.5361-.861.49008-2.45391,1.01731-4.90034,1.52014-7.35173.62642-3.05414,1.232-6.10909,1.62365-9.20839.363-2.872.87892-5.725,1.34849-8.583.36623-2.229.74367-4.45553,1.00664-6.70027.34853-2.97523.90135-5.91859,1.39977-8.8707.35576-2.10718.65988-4.22328.96964-6.33794.41205-2.81325.95077-5.60533,1.39654-8.412.24227-1.52537.51163-3.05142.75481-4.575.35427-2.21987.62588-4.45483,1.03941-6.666a6.59764,6.59764,0,0,0,.203-1.52706c-.038-.70887.36017-.72065.86249-.71961q4.38441.00914,8.76881.003Z" style="fill: #fee300"/>
    <path d="M308.28545,48.64223c0,3.04821-.01332,6.09651.01,9.14454.00541.70884-.18482.98257-.964.97653-5.10542-.03962-10.21124-.02426-15.31693-.03036-1.70655-.002-1.74876-.00833-1.6869-1.66061.21714-5.79924-.02922-11.59695-.03256-17.39529-.00034-.6158.136-.84666.80258-.89348,5.54521-.38945,11.09549-.29878,16.6462-.2531.47061.00387.50038.21764.49886.59635-.01264,3.17176-.00719,6.34359-.00719,9.5154Z" style="fill: #fee300"/>
    <path d="M338.92776,38.43783c2.6993,0,5.39863.00837,8.09775-.0097.37224-.00249.47321.10851.46519.46038q-.10958,4.79294.10083,9.583c.14426,3.19225.275,6.382.15381,9.57878-.01928.50866-.18177.61722-.649.61519-4.70658-.0204-9.41334-.01616-14.11992-.035-.64159-.00257-1.28208-.11075-1.92443-.13755-.41457-.01729-.57078-.22423-.57433-.60538-.00512-.54485-.02557-1.08991-.01616-1.63447.09662-5.59853.0508-11.195-.2713-16.78622-.03624-.62877.09625-.87329.78718-.86337,2.64963.038,5.30016.01539,7.95033.01539Z" style="fill: #fd2810"/>
    <path d="M327.81155,47.971c.16347,3.194.1545,6.01928.134,8.84474-.00127.17346-.00367.347-.00908.52035-.03519,1.12343-.03529,1.13193-1.11818,1.15834-4.53509.1106-9.07.0061-13.60491-.02705a8.86294,8.86294,0,0,1-1.63925-.06311c-.75044-.1407-.83725-.52528-.889-1.09732-.21023-2.32378-.20787-4.65445-.206-6.98336.00287-3.544.06449-7.088.06184-10.632-.00051-.66836.195-.8757.87229-.9145,4.58265-.26246,9.16836-.093,13.75207-.14756.71841-.00855,1.44231.03824,2.15328-.03786.43643-.04671.50477.07994.4991.45587-.01608,1.06548-.0061,2.13136-.00617,3.19708C327.81152,44.277,327.81155,46.30921,327.81155,47.971Z" style="fill: #fd2810"/>
    <path d="M362.40514,38.421c4.01245-.03521,8.02916.00185,12.03308-.25077,1.29983-.082,2.61274-.08372,3.90872-.26951.23042-.033.5458-.175.66838.11555.11132.26382-.16975.44383-.34378.603a61.50721,61.50721,0,0,1-8.61061,6.65332c-3.07579,1.94633-6.12355,3.93749-9.16673,5.9346-2.467,1.619-4.92694,3.25019-7.35337,4.92887a20.39987,20.39987,0,0,1-2.99308,1.74713c-.59224.27617-.60331.04456-.59765-.4101.03-2.40354.093-4.80757.069-7.21068-.03584-3.59287-.11833-7.18558-.22076-10.77723-.01953-.68406.173-.89156.86249-.88645,3.9146.029,7.82957.01406,11.74439.01406Z" style="fill: #fd2810"/>
    <path d="M286.14767,58.90794c-6.26385-.21014-12.52978-.18266-18.79538-.14412q-3.90117.024-7.78524.43092c-.54371.05733-.53534-.16117-.37077-.54443a2.40673,2.40673,0,0,1,.82219-.9377c1.57531-1.20421,3.29373-2.19575,4.92659-3.31336,3.56464-2.43987,7.07287-4.96323,10.66394-7.363,3.52978-2.35883,6.9684-4.86361,10.7015-6.90844.43365-.23755.88318-.44781,1.33349-.65278.38656-.176.6107-.094.58467.39221-.05158.96358-.114,1.92809-.11817,2.89245-.01649,3.78969-.00258,7.57952-.02112,11.3692-.00581,1.18778-.07173,2.37552-.1219,3.56277-.04989,1.18086-.09506,1.21674-1.29958,1.2163Q286.40776,58.90787,286.14767,58.90794Z" style="fill: #fee300"/>
    <path d="M166.16073,46.64947a15.38327,15.38327,0,0,1-2.83315,8.07782,27.564,27.564,0,0,1-7.66282,7.43385,5.17445,5.17445,0,0,1-2.34987.837.83072.83072,0,0,1-1.0271-.79939,2.60313,2.60313,0,0,1,.80022-2.553c1.16262-1.00258,2.35565-1.97,3.51676-2.97428a9.68308,9.68308,0,0,0,2.89748-4.22263c.4224-1.227.1526-1.63973-1.11931-1.87039a35.72617,35.72617,0,0,1-3.60906-.818,4.07109,4.07109,0,0,1-3.35681-4.14c-.35873-4.29743,1.99682-7.31251,6.49983-8.1121a5.54576,5.54576,0,0,1,4.263,1.39209A9.38379,9.38379,0,0,1,166.16073,46.64947Z" style="fill: #fee300"/>
    <path d="M95.62171,129.069c-12.17227-.09811-20.41968-2.79337-27.43933-8.81724a42.38186,42.38186,0,0,1-13.71315-23.236,30.95479,30.95479,0,0,1,.39965-15.08612A40.459,40.459,0,0,1,61.413,67.83863a38.30941,38.30941,0,0,1,17.57857-13.3897,36.07107,36.07107,0,0,1,13.33712-2.4763,37.76047,37.76047,0,0,1,19.37723,5.54749,40.30088,40.30088,0,0,1,13.87418,13.88641,39.13268,39.13268,0,0,1,5.33846,15.27809,24.03492,24.03492,0,0,1,.01357,5.06342,52.25085,52.25085,0,0,1-1.54517,9.563,32.55881,32.55881,0,0,1-2.1813,5.70759c-3.62443,7.39454-9.29208,12.87874-16.24709,17.06C105.35162,127.44936,99.22007,129.14968,95.62171,129.069Z" style="fill: #00437b"/>
    <path d="M186.5946,126.16711c-2.105,0-4.21034-.02227-6.31471.01343-.63893.01084-.81-.1216-.67052-.78944.51414-2.46267,1.03546-4.92755,1.42081-7.41226.3383-2.18124.71827-4.3582.90434-6.56583.149-1.76744.56081-3.51289.70574-5.28043.10751-1.31119.47757-2.58719.45646-3.90711-.00693-.43492.25936-.48713.57968-.4758,1.38372.04894,2.77629.02622,4.14814.18282,1.37748.15725,2.75946.14156,4.13513.214a49.4455,49.4455,0,0,1,6.82545.625,9.27871,9.27871,0,0,1,6.4081,4.71448,11.3899,11.3899,0,0,1,1.22542,8.41543,12.69793,12.69793,0,0,1-11.07389,9.64229,77.87136,77.87136,0,0,1-8.75018.43457Z" style="fill: #00437b"/>
    <path d="M194.37485,67.728c2.15171.151,4.3061.01072,6.45671.2391,3.506.37231,6.48408,1.59933,8.43831,4.75719,2.57108,4.15454,1.20886,11.42338-4.30944,14.1193a18.51739,18.51739,0,0,1-7.2876,1.7901c-3.65981.19317-7.33077.07777-10.98586.42482-1.17438.1115-1.22794.00811-1.02786-1.17906.402-2.38544.86062-4.76251,1.207-7.15588.559-3.86234,1.1396-7.72158,1.47528-11.61528.14749-1.711-.18844-1.37557,1.50231-1.37954C191.3541,67.72518,192.86447,67.728,194.37485,67.728Z" style="fill: #00437b"/>
    <path d="M354.12014,90.34405a7.31765,7.31765,0,0,1-1.67843,4.57832,17.09644,17.09644,0,0,1-9.30626,6.00992,100.43309,100.43309,0,0,1-10.29529,2.11631c-.37333.05753-.80512.03844-.63069-.62684a40.06027,40.06027,0,0,1,5.285-12.06439,16.84235,16.84235,0,0,1,7.79849-6.272c2.70928-1.11956,4.60677-.6521,6.736,1.56973A6.82781,6.82781,0,0,1,354.12014,90.34405Z" style="fill: #00437b"/>
  </g>
</svg>
