<svg width="20" height="20" viewBox="0 0 20 20" fill="none" xmlns="http://www.w3.org/2000/svg">
<path d="M13.3336 5.83329C13.3336 5.37305 13.7067 4.99996 14.1669 4.99996C14.6271 4.99996 15.0002 5.37305 15.0002 5.83329C15.0002 6.29353 14.6271 6.66662 14.1669 6.66662C13.7067 6.66662 13.3336 6.29353 13.3336 5.83329Z" fill="#005CE8"/>
<path fill-rule="evenodd" clip-rule="evenodd" d="M10.0002 6.04162C7.81411 6.04162 6.0419 7.81383 6.0419 9.99996C6.0419 12.1861 7.81411 13.9583 10.0002 13.9583C12.1864 13.9583 13.9586 12.1861 13.9586 9.99996C13.9586 7.81383 12.1864 6.04162 10.0002 6.04162ZM7.2919 9.99996C7.2919 8.50419 8.50446 7.29162 10.0002 7.29162C11.496 7.29162 12.7086 8.50419 12.7086 9.99996C12.7086 11.4957 11.496 12.7083 10.0002 12.7083C8.50446 12.7083 7.2919 11.4957 7.2919 9.99996Z" fill="#005CE8"/>
<path fill-rule="evenodd" clip-rule="evenodd" d="M14.3821 2.3608C11.4933 2.03794 8.50719 2.03794 5.61838 2.3608C3.94166 2.5482 2.58805 3.86904 2.39092 5.55448C2.04547 8.50807 2.04547 11.4918 2.39092 14.4454C2.58805 16.1309 3.94166 17.4517 5.61838 17.6391C8.50719 17.962 11.4933 17.962 14.3821 17.6391C16.0588 17.4517 17.4124 16.1309 17.6096 14.4454C17.955 11.4918 17.955 8.50806 17.6096 5.55448C17.4124 3.86904 16.0588 2.5482 14.3821 2.3608ZM5.75722 3.60307C8.55376 3.29051 11.4467 3.29051 14.2433 3.60307C15.3517 3.72695 16.2396 4.60163 16.368 5.69969C16.7022 8.5568 16.7022 11.4431 16.368 14.3002C16.2396 15.3983 15.3517 16.273 14.2433 16.3968C11.4467 16.7094 8.55376 16.7094 5.75722 16.3968C4.64879 16.273 3.76089 15.3983 3.63246 14.3002C3.2983 11.4431 3.2983 8.5568 3.63246 5.69969C3.76089 4.60163 4.64879 3.72695 5.75722 3.60307Z" fill="#005CE8"/>
</svg>
