<svg width="20" height="20" viewBox="0 0 20 20" fill="none" xmlns="http://www.w3.org/2000/svg">
<path d="M18.1748 5.18953C18.2231 5.12222 18.1518 5.03531 18.0745 5.06525C17.5256 5.27803 16.9519 5.42158 16.3667 5.49233C17.0183 5.10306 17.5211 4.51049 17.7999 3.80894C17.8283 3.73747 17.7503 3.67365 17.6829 3.71083C17.0774 4.04528 16.4242 4.28611 15.7458 4.42481C15.7174 4.43061 15.6881 4.42094 15.6682 4.39991C15.159 3.86268 14.4888 3.50498 13.7582 3.38137C13.0122 3.25517 12.2455 3.38013 11.5782 3.73665C10.9109 4.09318 10.3808 4.66111 10.0711 5.35136C9.77655 6.00766 9.69708 6.73925 9.84234 7.44186C9.85361 7.49637 9.81094 7.54784 9.75537 7.54439C8.43533 7.4624 7.14558 7.1113 5.96557 6.51221C4.78856 5.91466 3.74628 5.08335 2.90222 4.06958C2.86476 4.02458 2.79377 4.03041 2.76647 4.0822C2.50383 4.58059 2.36632 5.13608 2.36669 5.70066C2.36562 6.26265 2.50354 6.81618 2.76815 7.31197C3.03277 7.80776 3.41587 8.23042 3.88336 8.54233C3.38759 8.52884 2.90148 8.40628 2.4594 8.18406C2.40242 8.15542 2.33408 8.1962 2.33705 8.25989C2.37152 9.00092 2.64357 9.74486 3.11445 10.3156C3.61555 10.923 4.31107 11.3387 5.08336 11.4923C4.78607 11.5828 4.47742 11.6305 4.16669 11.634C3.99757 11.632 3.82879 11.6195 3.6613 11.5966C3.5992 11.5882 3.5485 11.6471 3.57024 11.7059C3.80058 12.3288 4.20752 12.8724 4.74259 13.2691C5.31463 13.6933 6.00467 13.9286 6.71669 13.9423C5.51436 14.8884 4.02993 15.4047 2.50002 15.409C2.34282 15.4095 2.18569 15.4044 2.02892 15.3937C1.94058 15.3877 1.89996 15.5054 1.9761 15.5506C3.46674 16.4352 5.17051 16.9028 6.90836 16.9007C8.19143 16.914 9.4643 16.6715 10.6526 16.1874C11.8409 15.7033 12.9209 14.9872 13.8294 14.0811C14.7378 13.1749 15.4567 12.0968 15.9438 10.9098C16.431 9.72268 16.6767 8.45044 16.6667 7.16733V6.76747C16.6667 6.74116 16.6791 6.71642 16.7001 6.70057C17.2654 6.27378 17.7624 5.76425 18.1748 5.18953Z" fill="#005CE8"/>
</svg>
