<svg width="20" height="20" viewBox="0 0 20 20" fill="none" xmlns="http://www.w3.org/2000/svg">
<path d="M11.8745 16.2496V12.4995C11.8745 12.3338 11.8087 12.1748 11.6915 12.0576C11.5743 11.9404 11.4153 11.8745 11.2495 11.8745H8.74954C8.58378 11.8745 8.42481 11.9404 8.3076 12.0576C8.19039 12.1748 8.12454 12.3338 8.12454 12.4995V16.2496C8.12454 16.4154 8.0587 16.5743 7.94151 16.6915C7.82432 16.8087 7.66537 16.8746 7.49962 16.8746L3.75008 16.8751C3.668 16.8751 3.58671 16.859 3.51088 16.8276C3.43504 16.7962 3.36613 16.7501 3.30809 16.6921C3.25004 16.634 3.204 16.5651 3.17258 16.4893C3.14117 16.4135 3.125 16.3322 3.125 16.2501V9.02664C3.125 8.93957 3.14319 8.85345 3.17842 8.77382C3.21364 8.69419 3.26511 8.6228 3.32954 8.56422L9.57911 2.88181C9.69415 2.77721 9.84406 2.71924 9.99955 2.71924C10.155 2.71923 10.3049 2.77719 10.42 2.88178L16.6704 8.56421C16.7349 8.62279 16.7863 8.69419 16.8216 8.77383C16.8568 8.85347 16.875 8.93959 16.875 9.02667V16.2501C16.875 16.3322 16.8588 16.4135 16.8274 16.4893C16.796 16.5651 16.75 16.634 16.6919 16.6921C16.6339 16.7501 16.565 16.7962 16.4891 16.8276C16.4133 16.859 16.332 16.8751 16.2499 16.8751L12.4995 16.8746C12.3337 16.8746 12.1748 16.8087 12.0576 16.6915C11.9404 16.5743 11.8745 16.4154 11.8745 16.2496V16.2496Z" stroke="white" stroke-width="1.25" stroke-linecap="round" stroke-linejoin="round"/>
</svg>
