<svg width="20" height="20" viewBox="0 0 20 20" fill="none" xmlns="http://www.w3.org/2000/svg">
<path d="M10 17.5C14.1421 17.5 17.5 14.1421 17.5 10C17.5 5.85786 14.1421 2.5 10 2.5C5.85786 2.5 2.5 5.85786 2.5 10C2.5 14.1421 5.85786 17.5 10 17.5Z" stroke="#626C70" stroke-width="1.25" stroke-linecap="round" stroke-linejoin="round"/>
<path d="M10.3125 14.0625C10.3125 14.2351 10.1726 14.375 10 14.375C9.82741 14.375 9.6875 14.2351 9.6875 14.0625C9.6875 13.8899 9.82741 13.75 10 13.75C10.1726 13.75 10.3125 13.8899 10.3125 14.0625Z" fill="#626C70" stroke="#626C70" stroke-width="1.25"/>
<path d="M10 11.2502V10.6252C10.4326 10.6252 10.8556 10.497 11.2153 10.2566C11.575 10.0162 11.8554 9.67458 12.021 9.27487C12.1866 8.87515 12.2299 8.43532 12.1455 8.01099C12.0611 7.58665 11.8527 7.19688 11.5468 6.89095C11.2409 6.58502 10.8511 6.37668 10.4268 6.29228C10.0024 6.20787 9.56259 6.25119 9.16288 6.41676C8.76317 6.58233 8.42153 6.8627 8.18116 7.22244C7.9408 7.58217 7.8125 8.0051 7.8125 8.43775" stroke="#626C70" stroke-width="1.25" stroke-linecap="round" stroke-linejoin="round"/>
</svg>
