<svg width="20" height="20" viewBox="0 0 30 30" fill="none" xmlns="http://www.w3.org/2000/svg">
<g clip-path="url(#clip0_37_14308)">
<path d="M10.7037 0.725098C9.11289 0.725098 7.76686 1.75298 7.25292 3.17244H0.914307V5.61978H7.25292C7.75462 7.03923 9.10066 8.06712 10.7037 8.06712C12.7227 8.06712 14.3747 6.41516 14.3747 4.39611C14.3747 2.37705 12.7227 0.725098 10.7037 0.725098ZM16.822 3.17244V5.61978H25.3877V3.17244H16.822ZM16.822 9.29079C15.2312 9.29079 13.8852 10.3187 13.3713 11.7381H0.914307V14.1855H13.3713C13.873 15.6049 15.219 16.6328 16.822 16.6328C18.8411 16.6328 20.493 14.9809 20.493 12.9618C20.493 10.9427 18.8411 9.29079 16.822 9.29079ZM22.9404 11.7381V14.1855H25.3877V11.7381H22.9404ZM7.03266 17.8565C5.44188 17.8565 4.09585 18.8844 3.58191 20.3038H0.914307V22.7512H3.58191C4.08361 24.1706 5.42965 25.1985 7.03266 25.1985C9.05171 25.1985 10.7037 23.5465 10.7037 21.5275C10.7037 19.5084 9.05171 17.8565 7.03266 17.8565ZM13.151 20.3038V22.7512H25.3877V20.3038H13.151Z" fill="#404040"/>
</g>
<defs>
<clipPath id="clip0_37_14308">
<rect width="24.4734" height="24.4734" fill="white" transform="translate(0.914551 0.724915)"/>
</clipPath>
</defs>
</svg>
