<svg width="14" height="18" viewBox="0 0 14 18" fill="none" xmlns="http://www.w3.org/2000/svg">
<path fill-rule="evenodd" clip-rule="evenodd" d="M7.83235 1.49935C7.83235 1.03911 7.45925 0.666016 6.99901 0.666016C6.53878 0.666016 6.16568 1.03911 6.16568 1.49935V2.12435H5.70117C3.84694 2.12435 2.31227 3.56603 2.19653 5.41664L2.01236 8.36118C1.94214 9.48385 1.56523 10.5657 0.922683 11.489C0.342115 12.3232 0.858965 13.4754 1.86807 13.5965L4.70735 13.9372V14.8327C4.70735 16.0983 5.73336 17.1243 6.99901 17.1243C8.26467 17.1243 9.29068 16.0983 9.29068 14.8327V13.9372L12.1299 13.5965C13.1391 13.4754 13.6559 12.3232 13.0753 11.489C12.4328 10.5657 12.0559 9.48385 11.9857 8.36118L11.8015 5.41664C11.6857 3.56603 10.1511 2.12435 8.29685 2.12435H7.83235V1.49935ZM5.70117 3.37435C4.507 3.37435 3.51863 4.30283 3.44409 5.49467L3.25992 8.43921C3.17542 9.79016 2.72188 11.092 1.94867 12.203C1.90671 12.2633 1.94407 12.3466 2.017 12.3554L5.13172 12.7291C6.37213 12.878 7.62589 12.878 8.8663 12.7291L11.981 12.3554C12.054 12.3466 12.0913 12.2633 12.0493 12.203C11.2761 11.092 10.8226 9.79016 10.7381 8.43921L10.5539 5.49467C10.4794 4.30283 9.49102 3.37435 8.29685 3.37435H5.70117ZM6.99901 15.8743C6.42372 15.8743 5.95735 15.408 5.95735 14.8327V14.2077H8.04068V14.8327C8.04068 15.408 7.57431 15.8743 6.99901 15.8743Z" fill="#000000"/>
</svg>
