<svg width="20" height="20" viewBox="0 0 20 20" fill="none" xmlns="http://www.w3.org/2000/svg">
<path d="M2.86499 13.5195L4.75462 2.80285C4.78341 2.63961 4.87586 2.49449 5.01164 2.39941C5.14742 2.30433 5.31541 2.26709 5.47866 2.29587L9.78719 3.05559C9.95043 3.08437 10.0956 3.17682 10.1906 3.31261C10.2857 3.44839 10.3229 3.61638 10.2942 3.77962L8.39488 14.551C8.267 15.2762 7.85978 15.9223 7.26068 16.3506C6.66159 16.7789 5.91842 16.9551 5.19083 16.8413C3.63281 16.5972 2.59114 15.0726 2.86499 13.5195Z" stroke="#626C70" stroke-width="1.25" stroke-linecap="round" stroke-linejoin="round"/>
<path d="M9.24068 9.75353L14.9409 7.67881C15.0967 7.62211 15.2686 7.62962 15.4188 7.69967C15.5691 7.76972 15.6853 7.89659 15.742 8.05235L17.2383 12.1635C17.2664 12.2406 17.279 12.3225 17.2754 12.4045C17.2719 12.4865 17.2522 12.567 17.2175 12.6414C17.1828 12.7158 17.1338 12.7826 17.0733 12.8381C17.0128 12.8935 16.9419 12.9365 16.8648 12.9646L6.58691 16.7054" stroke="#626C70" stroke-width="1.25" stroke-linecap="round" stroke-linejoin="round"/>
<path d="M17.1875 12.6978V16.2499C17.1875 16.4156 17.1217 16.5746 17.0044 16.6918C16.8872 16.809 16.7283 16.8749 16.5625 16.8749H5.625" stroke="#626C70" stroke-width="1.25" stroke-linecap="round" stroke-linejoin="round"/>
<path d="M5.625 15C6.14277 15 6.5625 14.5803 6.5625 14.0625C6.5625 13.5447 6.14277 13.125 5.625 13.125C5.10723 13.125 4.6875 13.5447 4.6875 14.0625C4.6875 14.5803 5.10723 15 5.625 15Z" fill="#626C70"/>
</svg>
