<svg width="20" height="20" viewBox="0 0 20 20" fill="none" xmlns="http://www.w3.org/2000/svg">
<path d="M9.75252 4.6796C9.77681 3.92591 9.98441 2.81563 10.7069 2.08623C11.3776 1.40916 12.194 1.07917 12.7025 0.928318C12.8988 0.870077 13.0872 1.01811 13.0775 1.22266C13.0435 1.94415 12.8537 3.02031 12.3643 3.59683C11.9028 4.1403 11.1606 4.86098 10.0733 4.98223C9.89535 5.00208 9.74675 4.85857 9.75252 4.6796Z" fill="#191B1C"/>
<path d="M11.6142 18.4745C12.1363 18.6745 12.6642 18.8767 13.1419 18.8767C14.1639 18.8767 17.1398 16.5188 17.247 14.0698C17.2525 13.944 17.1774 13.8317 17.0675 13.7702C16.3106 13.3466 15.0744 12.2919 15.0314 10.7574C14.9813 8.9692 15.8791 7.54889 16.5586 6.96137C16.7116 6.82914 16.7641 6.59599 16.6276 6.44688C16.0093 5.77171 14.7655 4.843 13.6307 4.8658C12.8051 4.88239 12.0612 5.18993 11.4229 5.45383C10.9332 5.6563 10.5056 5.83308 10.1508 5.83308C9.81486 5.83308 9.41152 5.65743 8.94859 5.45584C8.32516 5.18435 7.59367 4.8658 6.77311 4.8658C5.25316 4.8658 2.25001 6.12619 2.25 10.9919C2.25 13.5713 4.9128 18.9451 7.15976 18.8767C7.64496 18.8767 8.16348 18.6758 8.67802 18.4764C9.18471 18.2801 9.68753 18.0853 10.1508 18.0853C10.5982 18.0853 11.1034 18.2788 11.6142 18.4745Z" fill="#191B1C"/>
</svg>
