<svg width="64" height="40" viewBox="0 0 64 40" fill="none" xmlns="http://www.w3.org/2000/svg">
<path d="M40.6583 35.0773H23.3508V4.6582H40.6586L40.6583 35.0773Z" fill="white" fill-opacity="0.7"/>
<path d="M24.448 19.8679C24.448 13.6974 27.4022 8.20063 32.0026 4.65831C28.5204 1.973 24.2134 0.515586 19.7789 0.521994C8.85504 0.521994 0 9.18331 0 19.8679C0 30.5524 8.85504 39.2138 19.7789 39.2138C24.2135 39.2202 28.5206 37.7628 32.0029 35.0774C27.4029 31.5357 24.448 26.0387 24.448 19.8679Z" fill="white"/>
<path d="M64.0079 19.8684C64.0079 30.5529 55.1529 39.2142 44.229 39.2142C39.7939 39.2206 35.4864 37.7632 32.0034 35.0779C36.605 31.5356 39.5593 26.0392 39.5593 19.8684C39.5593 13.6975 36.605 8.20112 32.0034 4.6588C35.4863 1.97357 39.7937 0.516186 44.2287 0.522481C55.1526 0.522481 64.0076 9.1838 64.0076 19.8684" fill="white"/>
</svg>
