<svg width="27" height="27" viewBox="0 0 27 27" fill="none" xmlns="http://www.w3.org/2000/svg">
<path fill-rule="evenodd" clip-rule="evenodd" d="M23.1667 12.5401H23.1699C23.7614 12.5401 24.2423 13.0188 24.2433 13.6103C24.2519 16.4773 23.1431 19.1769 21.1208 21.2099C19.0996 23.2429 16.4076 24.3668 13.5405 24.3754H13.5094C10.6531 24.3754 7.96638 23.2676 5.94088 21.2529C3.90787 19.2317 2.78403 16.5396 2.77544 13.6725C2.76685 10.8044 3.87567 8.10592 5.89794 6.07291C7.91915 4.0399 10.6112 2.91606 13.4783 2.90747C14.3316 2.92035 15.2011 3.00622 16.034 3.20587C16.6093 3.34542 16.9646 3.92505 16.8251 4.50146C16.6866 5.0768 16.1038 5.43102 15.5306 5.29363C14.864 5.13262 14.1566 5.06499 13.4847 5.05426C11.1909 5.0607 9.03655 5.96021 7.42002 7.5864C5.80241 9.21259 4.91579 11.3723 4.92223 13.6661C4.92867 15.9599 5.82817 18.1132 7.45437 19.7308C9.07519 21.3419 11.2241 22.2286 13.5094 22.2286H13.5341C15.8279 22.2221 17.9822 21.3226 19.5988 19.6964C21.2164 18.0692 22.103 15.9106 22.0965 13.6167C22.0955 13.0242 22.5742 12.5412 23.1667 12.5401ZM9.53053 12.8824C9.95023 12.4627 10.6286 12.4627 11.0483 12.8824L13.457 15.2911L20.2162 7.56699C20.6069 7.12368 21.2842 7.07645 21.7307 7.46716C22.1762 7.8568 22.2213 8.53519 21.8306 8.98172L14.3168 17.5689C14.1214 17.7921 13.8424 17.9242 13.545 17.9349H13.5096C13.2252 17.9349 12.9525 17.8222 12.7507 17.6204L9.53053 14.4002C9.11083 13.9805 9.11083 13.3021 9.53053 12.8824Z" fill="#C5CEE0"/>
<mask id="mask0_37_14459" style="mask-type:alpha" maskUnits="userSpaceOnUse" x="2" y="2" width="23" height="23">
<path fill-rule="evenodd" clip-rule="evenodd" d="M23.1667 12.5401H23.1699C23.7614 12.5401 24.2423 13.0188 24.2433 13.6103C24.2519 16.4773 23.1431 19.1769 21.1208 21.2099C19.0996 23.2429 16.4076 24.3668 13.5405 24.3754H13.5094C10.6531 24.3754 7.96638 23.2676 5.94088 21.2529C3.90787 19.2317 2.78403 16.5396 2.77544 13.6725C2.76685 10.8044 3.87567 8.10592 5.89794 6.07291C7.91915 4.0399 10.6112 2.91606 13.4783 2.90747C14.3316 2.92035 15.2011 3.00622 16.034 3.20587C16.6093 3.34542 16.9646 3.92505 16.8251 4.50146C16.6866 5.0768 16.1038 5.43102 15.5306 5.29363C14.864 5.13262 14.1566 5.06499 13.4847 5.05426C11.1909 5.0607 9.03655 5.96021 7.42002 7.5864C5.80241 9.21259 4.91579 11.3723 4.92223 13.6661C4.92867 15.9599 5.82817 18.1132 7.45437 19.7308C9.07519 21.3419 11.2241 22.2286 13.5094 22.2286H13.5341C15.8279 22.2221 17.9822 21.3226 19.5988 19.6964C21.2164 18.0692 22.103 15.9106 22.0965 13.6167C22.0955 13.0242 22.5742 12.5412 23.1667 12.5401ZM9.53053 12.8824C9.95023 12.4627 10.6286 12.4627 11.0483 12.8824L13.457 15.2911L20.2162 7.56699C20.6069 7.12368 21.2842 7.07645 21.7307 7.46716C22.1762 7.8568 22.2213 8.53519 21.8306 8.98172L14.3168 17.5689C14.1214 17.7921 13.8424 17.9242 13.545 17.9349H13.5096C13.2252 17.9349 12.9525 17.8222 12.7507 17.6204L9.53053 14.4002C9.11083 13.9805 9.11083 13.3021 9.53053 12.8824Z" fill="white"/>
</mask>
<g mask="url(#mask0_37_14459)">
</g>
</svg>
