<svg id="b9af0de1-ccb0-4358-befe-b84337fa64fd" data-name="a900b5fe-23f2-41fc-8912-014744048a48" xmlns="http://www.w3.org/2000/svg" viewBox="0 0 127 90">
  <path d="M127,90H0V0H127ZM14.908,33l.34-2H8.33216L6.93377,41H13.858l.32-2H9.798l.21-1h4.03l.31-3h-4.03l.21-2Zm.27971,8h6.57409l.33692-3H18.08781l.98847-7h-2.4905Zm11.13558-8h4.37988L31.04,31H24.12337l-1.3981,10h6.92512l.32276-2H25.59326l.2105-1h4.02881l.30908-3H26.11231Zm10.16308,5.07974a1.74041,1.74041,0,0,1-1.55859.89844c-.70166,0-1.31934-.40723-1.22119-1.05273l.47753-3.42481a1.47145,1.47145,0,0,1,1.52979-1.081,1.42694,1.42694,0,0,1,1.4043.7998l2.16162-.82812a3.11276,3.11276,0,0,0-3.17237-2.28809,4.23378,4.23378,0,0,0-4.43652,3.39748l-.477,3.4248c-.30908,2.25977,1.48779,3.39746,3.43945,3.39746A4.62667,4.62667,0,0,0,38.5357,39.0905ZM47.47705,33l.33692-2H39.91065l-.33689,2h2.64716l-1.10085,8h2.65712L44.878,33Zm5.289,8h3.22839L53.5937,37.56809a3.5077,3.5077,0,0,0,2.415-3.12144C56.29119,32.10239,54.82233,31,52.76,31H48.7632L47.36509,41h2.64034l.41374-3h.42671Zm-2.08932-5L51,34h1.47364c.503-.45642.94637-.08421.99026.41881a.91444.91444,0,0,1-.02151.29165A1.53749,1.53749,0,0,1,52.15088,36Zm9.655-5h-2.528L56.4056,41h2.528Zm5.67365,7.07965a1.74019,1.74019,0,0,1-1.5581.89844c-.70215,0-1.31983-.40723-1.22168-1.05274l.47754-3.4248a1.47166,1.47166,0,0,1,1.53028-1.08106,1.426,1.426,0,0,1,1.40332.79981l2.16211-.82813A3.113,3.113,0,0,0,65.626,31.10309a4.23277,4.23277,0,0,0-4.43555,3.39747l-.47754,3.42481c-.30859,2.25976,1.48829,3.39746,3.43946,3.39746a4.62722,4.62722,0,0,0,3.90234-2.23242ZM74.91946,31h-2.302l-4.887,10h2.71692l.88781-2h2.66242l.38021,2h2.71692Zm-2.72057,6,1.13092-3h.10135l.304,3Zm5.50781,4h6.57406l.33692-3H80.60689l.98847-7H79.10483Zm17.04574-4.88573-1.01074.77246-.688-1.02539A3.04889,3.04889,0,0,0,94.584,33.57326a2.237,2.237,0,0,0-2.33008-2.583C89.82519,30.92,87.958,33.5596,89.418,35.35648a3.22173,3.22173,0,0,0-1.83887,2.499c-.42138,3.08789,3.03223,4.14062,5.32032,2.34375L93.46094,41h2.94824l-1.54443-2.331,1.03856-.75782Zm-3.07421,2.5689a1.02692,1.02692,0,0,1-1.60059,0,1.05558,1.05558,0,0,1,.50919-1.40329q.03276-.01532.06649-.02835Zm.25244-5.54493a.49508.49508,0,0,1,.46338.60352c-.05616.36523-.33692.61816-.814.91309-.22461-.32325-.43555-.61817-.39355-.8711a.7675.7675,0,0,1,.74417-.64546ZM6.61524,56.37071A4.19468,4.19468,0,0,0,10.041,58.16759c2.14746,0,3.832-.96875,4.19726-2.90625.46289-2.47071-1.22168-3.12989-2.94824-3.45313-.75781-.16894-1.26318-.4209-1.19336-.99707.05664-.50488.58985-.74414,1.22168-.72949a2.31893,2.31893,0,0,1,1.65625.71582l1.8252-1.26367a3.54518,3.54518,0,0,0-3.18653-1.58594c-1.82519,0-3.62207.71582-4.001,2.751a2.89833,2.89833,0,0,0,2.35979,3.35142q.12475.02166.251.03237c.80029.1123,1.67041.3789,1.5581.99609-.09814.51953-.6875.75781-1.36133.75781a2.47445,2.47445,0,0,1-2.00781-.9541Zm8.52051-1.61426c-.32276,2.27344,1.57226,3.41114,3.63574,3.41114,2.16211,0,4.28174-1.1377,4.60449-3.41114l.49121-3.39746c.32324-2.27441-1.58594-3.41113-3.64941-3.41113-2.064,0-4.25391,1.123-4.59082,3.41113Zm3.0039-3.39746c.11231-.74414.99707-1.123,1.811-1.123.81445,0,1.51611.37891,1.40381,1.123l-.49122,3.32715c-.1123.78613-.99658,1.15039-1.811,1.15039-.75781,0-1.502-.36426-1.40381-1.08008ZM24.24135,58h6.57412l.33692-3H27.14146l.98859-7H25.63956ZM38.05942,48h-2.3023L30.86963,58H33.587l.88781-2h2.66242l.38021,2h2.71739Zm-2.72066,6,1.13054-3h.10132l.30392,3ZM46.225,58h3.2288l-2.401-3.43222A3.50809,3.50809,0,0,0,49.46813,51.446c.2825-2.34451-1.1865-3.446-3.249-3.446H42.22189L40.82363,58.00005H43.4644L43.87814,55h.42672Zm-2.08933-5,.32324-2h1.47363c.503-.61165.94637-.23944.99025.26358a.91423.91423,0,0,1-.0215.29166A1.9197,1.9197,0,0,1,45.60983,53Z" style="fill: #01437d"/>
</svg>
