<svg width="20" height="20" viewBox="0 0 20 20" fill="none" xmlns="http://www.w3.org/2000/svg">
<path fill-rule="evenodd" clip-rule="evenodd" d="M7.44098 3.72503C6.38163 3.60663 5.28504 3.60663 4.22569 3.72503C3.96829 3.7538 3.76529 3.95762 3.73634 4.20517C3.60983 5.28679 3.60983 6.37946 3.73634 7.46108C3.76529 7.70863 3.96829 7.91245 4.22569 7.94122C5.28504 8.05962 6.38163 8.05962 7.44098 7.94122C7.69839 7.91245 7.90139 7.70863 7.93034 7.46108C8.05684 6.37946 8.05684 5.28679 7.93034 4.20517C7.90139 3.95762 7.69839 3.7538 7.44098 3.72503ZM4.08685 2.48276C5.23848 2.35405 6.4282 2.35405 7.57982 2.48276C8.40552 2.57505 9.07422 3.22504 9.17188 4.05996C9.30966 5.23806 9.30966 6.4282 9.17188 7.60629C9.07422 8.44122 8.40552 9.0912 7.57982 9.18349C6.4282 9.3122 5.23848 9.3122 4.08685 9.18349C3.26115 9.0912 2.59245 8.44122 2.4948 7.60629C2.35701 6.4282 2.35701 5.23806 2.4948 4.05996C2.59245 3.22504 3.26115 2.57505 4.08685 2.48276Z" fill="#4A5154"/>
<path fill-rule="evenodd" clip-rule="evenodd" d="M7.44098 12.0584C6.38163 11.94 5.28504 11.94 4.22569 12.0584C3.96829 12.0871 3.76529 12.291 3.73634 12.5385C3.60983 13.6201 3.60983 14.7128 3.73634 15.7944C3.76529 16.042 3.96829 16.2458 4.22569 16.2746C5.28504 16.393 6.38163 16.393 7.44098 16.2746C7.69839 16.2458 7.90139 16.042 7.93034 15.7944C8.05684 14.7128 8.05684 13.6201 7.93034 12.5385C7.90139 12.291 7.69839 12.0871 7.44098 12.0584ZM4.08685 10.8161C5.23848 10.6874 6.4282 10.6874 7.57982 10.8161C8.40552 10.9084 9.07422 11.5584 9.17188 12.3933C9.30966 13.5714 9.30966 14.7615 9.17188 15.9396C9.07422 16.7745 8.40552 17.4245 7.57982 17.5168C6.4282 17.6455 5.23848 17.6455 4.08685 17.5168C3.26115 17.4245 2.59245 16.7745 2.4948 15.9396C2.35701 14.7615 2.35701 13.5714 2.4948 12.3933C2.59245 11.5584 3.26115 10.9084 4.08685 10.8161Z" fill="#4A5154"/>
<path fill-rule="evenodd" clip-rule="evenodd" d="M15.7743 3.72503C14.715 3.60663 13.6184 3.60663 12.559 3.72503C12.3016 3.7538 12.0986 3.95762 12.0697 4.20517C11.9432 5.28679 11.9432 6.37946 12.0697 7.46108C12.0986 7.70863 12.3016 7.91245 12.559 7.94122C13.6184 8.05962 14.715 8.05962 15.7743 7.94122C16.0317 7.91245 16.2347 7.70863 16.2637 7.46108C16.3902 6.37946 16.3902 5.28679 16.2637 4.20517C16.2347 3.95762 16.0317 3.7538 15.7743 3.72503ZM12.4202 2.48276C13.5718 2.35405 14.7615 2.35405 15.9132 2.48276C16.7389 2.57505 17.4076 3.22504 17.5052 4.05996C17.643 5.23806 17.643 6.4282 17.5052 7.60629C17.4076 8.44122 16.7389 9.0912 15.9132 9.18349C14.7615 9.3122 13.5718 9.3122 12.4202 9.18349C11.5945 9.0912 10.9258 8.44122 10.8281 7.60629C10.6903 6.4282 10.6903 5.23806 10.8281 4.05996C10.9258 3.22504 11.5945 2.57505 12.4202 2.48276Z" fill="#4A5154"/>
<path fill-rule="evenodd" clip-rule="evenodd" d="M15.7743 12.0584C14.715 11.94 13.6184 11.94 12.559 12.0584C12.3016 12.0871 12.0986 12.291 12.0697 12.5385C11.9432 13.6201 11.9432 14.7128 12.0697 15.7944C12.0986 16.042 12.3016 16.2458 12.559 16.2746C13.6184 16.393 14.715 16.393 15.7743 16.2746C16.0317 16.2458 16.2347 16.042 16.2637 15.7944C16.3902 14.7128 16.3902 13.6201 16.2637 12.5385C16.2347 12.291 16.0317 12.0871 15.7743 12.0584ZM12.4202 10.8161C13.5718 10.6874 14.7615 10.6874 15.9132 10.8161C16.7389 10.9084 17.4076 11.5584 17.5052 12.3933C17.643 13.5714 17.643 14.7615 17.5052 15.9396C17.4076 16.7745 16.7389 17.4245 15.9132 17.5168C14.7615 17.6455 13.5718 17.6455 12.4202 17.5168C11.5945 17.4245 10.9258 16.7745 10.8281 15.9396C10.6903 14.7615 10.6903 13.5714 10.8281 12.3933C10.9258 11.5584 11.5945 10.9084 12.4202 10.8161Z" fill="#4A5154"/>
</svg>
