<svg width="32" height="32" viewBox="0 0 32 32" fill="none" xmlns="http://www.w3.org/2000/svg">
<path opacity="0.2" d="M5.31429 18.6225L5.89046 19.1026L8.52159 15.9453C8.72044 18.3281 9.47539 20.9572 11.0341 23.812L7.78406 26.412L8.25258 26.9977L7.78406 26.412C7.75091 26.4386 7.71155 26.4562 7.66969 26.4633C7.62784 26.4704 7.58486 26.4667 7.54482 26.4526C7.50478 26.4385 7.46898 26.4144 7.44082 26.3827C7.41266 26.3509 7.39304 26.3125 7.38384 26.271L7.38383 26.271L5.83848 19.3169L5.83847 19.3169C5.83018 19.2796 5.83055 19.2409 5.83957 19.2037C5.84858 19.1666 5.86598 19.132 5.89045 19.1026L5.31429 18.6225Z" fill="current" stroke="current" fill-rule="evenodd" clip-rule="evenodd" stroke-width="1.5"/>
<path opacity="0.2" d="M20.8905 23.7217C22.4492 20.8669 23.2041 18.2378 23.403 15.8549L26.0341 19.0123L26.0341 19.0123C26.0586 19.0417 26.076 19.0762 26.085 19.1134C26.094 19.1505 26.0944 19.1892 26.0861 19.2265L26.0861 19.2266L24.5407 26.1807L24.5407 26.1807C24.5315 26.2222 24.5119 26.2606 24.4837 26.2923C24.4556 26.3241 24.4198 26.3482 24.3797 26.3623C24.3397 26.3764 24.2967 26.3801 24.2549 26.373C24.213 26.3659 24.1736 26.3482 24.1405 26.3217L23.7024 26.8693L24.1405 26.3217L20.8905 23.7217Z" fill="current" stroke="current" fill-rule="evenodd" clip-rule="evenodd" stroke-width="1.5"/>
<path d="M18 28H14" stroke="#005CE8" stroke-width="1.5" stroke-linecap="round" stroke-linejoin="round"/>
<path d="M15.3714 2.47053C12.9974 4.3723 5.05688 11.9717 12.0001 24.0002H20.0001C26.7989 11.9802 18.9746 4.38305 16.6255 2.47458C16.4484 2.33063 16.2273 2.25172 15.9991 2.25098C15.771 2.25025 15.5494 2.32773 15.3714 2.47053V2.47053Z" stroke="#005CE8" stroke-width="1.5" stroke-linecap="round" stroke-linejoin="round"/>
<path d="M9.23307 13.9199L5.3143 18.6225C5.21641 18.7399 5.14677 18.8783 5.11072 19.0268C5.07466 19.1754 5.07316 19.3303 5.10633 19.4796L6.6517 26.4337C6.68854 26.5995 6.76698 26.7531 6.87964 26.8802C6.9923 27.0073 7.13546 27.1035 7.29563 27.16C7.4558 27.2164 7.6277 27.2311 7.79512 27.2027C7.96254 27.1743 8.11998 27.1037 8.25258 26.9976L11.9997 23.9999" stroke="#005CE8" stroke-width="1.5" stroke-linecap="round" stroke-linejoin="round"/>
<path d="M22.6914 13.8296L26.6854 18.6224C26.7833 18.7399 26.853 18.8782 26.889 19.0268C26.9251 19.1754 26.9266 19.3303 26.8934 19.4795L25.348 26.4337C25.3112 26.5994 25.2328 26.7531 25.1201 26.8802C25.0074 27.0072 24.8643 27.1035 24.7041 27.1599C24.5439 27.2163 24.372 27.2311 24.2046 27.2027C24.0372 27.1743 23.8798 27.1037 23.7472 26.9976L20 23.9999" stroke="#005CE8" stroke-width="1.5" stroke-linecap="round" stroke-linejoin="round"/>
<path d="M16 13.5C16.8284 13.5 17.5 12.8284 17.5 12C17.5 11.1716 16.8284 10.5 16 10.5C15.1716 10.5 14.5 11.1716 14.5 12C14.5 12.8284 15.1716 13.5 16 13.5Z" fill="white" stroke="#005CE8" stroke-width="1" stroke-linecap="round" stroke-linejoin="round"/>
</svg>
